<svg version="1.1" id="Layer_1___JbhelG4G" xmlns="http://www.w3.org/2000/svg" xmlns:xlink="http://www.w3.org/1999/xlink" x="0px" y="0px" viewBox="0 0 20 20" style="enable-background:new 0 0 20 20;" xml:space="preserve">
<style type="text/css">
	.st0{fill:#ED2224;}
	.st1{fill:#2873BA;}
	.st2{fill:#10753B;}
	.st3{fill:#6EB247;}
	.st4{fill:#43A2D7;}
	.st5{fill:#FFCA13;}
	.st6{fill:#D2952A;}
	.st7{fill:#ED1C24;}
	.st8{fill:#010101;}
	.st9{fill:#F6851F;}
	.st10{fill:#989898;}
	.st11{fill:#492078;}
</style>
<path class="st3" d="M10,0C10,0,9.9,0,10,0C9.9,0,9.9,0,9.9,0C9.8,0,9.8,0,9.7,0C4.3,0.2,0,4.6,0,10c0,5.4,4.3,9.8,9.7,10
	c0.1,0,0.1,0,0.2,0c0,0,0,0,0,0c0,0,0.1,0,0.1,0c5.5,0,10-4.5,10-10v0C20,4.5,15.5,0,10,0z M17.1,6.3h-2.3c-0.3-1.3-0.6-2.5-1.1-3.4
	C15.1,3.7,16.3,4.9,17.1,6.3z M18,10C18,10,18,10,18,10c0,0.8-0.1,1.5-0.3,2.3H15c0.1-0.7,0.1-1.5,0.1-2.3c0-0.6,0-1.2-0.1-1.7h2.8
	C17.9,8.9,18,9.4,18,10z M9.9,18.1c0,0-0.1,0-0.1,0c-0.9-0.1-2-1.4-2.6-3.8h5.3C11.9,16.7,10.8,18,9.9,18.1z M6.8,12.3
	c-0.1-0.7-0.1-1.5-0.1-2.3c0-0.6,0-1.2,0.1-1.7H13c0,0.5,0.1,1.1,0.1,1.7c0,0.8-0.1,1.6-0.1,2.3H6.8z M2,10c0-0.6,0.1-1.2,0.2-1.7
	h2.5c0,0.6-0.1,1.1-0.1,1.7c0,0.8,0,1.5,0.1,2.3H2.3C2.1,11.6,2,10.8,2,10z M9.8,2c0,0,0.1,0,0.1,0c1,0,2.2,1.6,2.8,4.3H7.1
	C7.7,3.7,8.8,2.1,9.8,2z M6,3.1c-0.5,0.9-0.8,2-1,3.3h-2C3.6,5,4.7,3.9,6,3.1z M3.2,14.3H5c0.2,1,0.5,1.9,0.9,2.7
	C4.8,16.3,3.9,15.4,3.2,14.3z M13.7,17.2c0.4-0.8,0.8-1.8,1-2.9h2.1C16,15.5,15,16.5,13.7,17.2z"></path>
</svg>