<svg version="1.1" id="Layer_1___G0P4neez" xmlns="http://www.w3.org/2000/svg" xmlns:xlink="http://www.w3.org/1999/xlink" x="0px" y="0px" viewBox="0 0 20 20" style="enable-background:new 0 0 20 20;" xml:space="preserve">
<style type="text/css">
	.st0{fill:#ED2224;}
	.st1{fill:#2873BA;}
	.st2{fill:#10753B;}
	.st3{fill:#6EB247;}
	.st4{fill:#43A2D7;}
	.st5{fill:#FFCA13;}
	.st6{fill:#D2952A;}
	.st7{fill:#ED1C24;}
	.st8{fill:#010101;}
	.st9{fill:#F6851F;}
	.st10{fill:#989898;}
	.st11{fill:#492078;}
</style>
<path class="st5" d="M15.5,5.2V3H6.2V1.7H0v16.4l3.1,0l0,0h13.4l0,0c0.9-0.1,1.6-0.9,1.5-1.7L20,5.2H15.5z M1.7,3.4h2.8v1.3h9.3v0.4
	H4.9L3,16.2l0,0.1l0,0.1l-1.3,0V3.4z M16.4,16.2l0,0.1l0,0.1H4.7c0,0,0,0,0,0l1.6-9.5h8.3h0.9H18L16.4,16.2z"></path>
</svg>